<?xml version="1.0" ?><!DOCTYPE svg  PUBLIC '-//W3C//DTD SVG 1.1//EN'  'http://www.w3.org/Graphics/SVG/1.1/DTD/svg11.dtd'><svg enable-background="new 0 0 512 512" height="512px" id="Calque_1" version="1.1" viewBox="0 0 512 512" width="512px" xml:space="preserve" xmlns="http://www.w3.org/2000/svg" xmlns:xlink="http://www.w3.org/1999/xlink"><g><path d="M416.752,263.5c0.726,0,1.428,0,2.057,0c0.5,0.021,0.937-0.037,1.284-0.045   c0.682-0.084,1.012-0.058,0.595,0.125c1.15-0.426,1.901-0.967,2.44-1.399c0.543-0.433,0.872-0.789,1.092-1.061   c0.437-0.544,0.471-0.757,0.33-1.196c0.656-1.297,0.961-2.696,1.11-3.409c0.074-0.354,0.167-0.525,0.24-0.394   c0.066,0.132,0.171,0.576,0.089,1.443c0.001,0,0.013-0.137,0.038-0.375c0.038-0.237,0.052-0.579,0.041-0.99   c-0.019-0.82-0.204-1.901-0.646-2.871c-0.427-0.977-1.091-1.823-1.672-2.35c-0.576-0.536-1.025-0.8-1.024-0.8   c-0.011,0.013,0.266,0.164,0.587,0.501c0.355,0.3,0.736,0.793,1.089,1.293c0.319,0.524,0.601,1.069,0.735,1.506   c0.163,0.427,0.213,0.728,0.213,0.728c-0.207-0.289-0.486-0.86-0.87-1.544c-0.395-0.679-0.982-1.441-1.729-2.043   c-0.739-0.608-1.623-1.041-2.416-1.22c-0.79-0.205-1.479-0.114-1.835,0.037c0,0,0.128,0.007,0.352,0.02   c0.228-0.008,0.541,0.045,0.92,0.098c0.748,0.139,1.73,0.479,2.561,1.092c0.841,0.592,1.519,1.396,1.897,2.064   c0.387,0.667,0.535,1.161,0.536,1.161l-0.325-0.309c0.44,0.784,0.772,2.179,0.524,3.463c-0.167,1.291-0.873,2.333-1.266,2.798   c0.019-0.221-0.097-0.177,0.487-1.392c-0.484,1.052-1.086,1.764-1.614,2.255c-0.538,0.479-0.972,0.805-1.32,1.008   c-0.686,0.436-0.931,0.616-1.116,0.817c-0.188,0.211-0.331,0.396-0.997,0.613c-0.173,0.035-0.375,0.076-0.617,0.126   c-0.321,0.032-0.727,0.058-1.184,0.083c-0.921,0.049-2.111,0.089-3.667,0.114C414.451,263.431,415.417,263.441,416.752,263.5z" fill="#202020"/><path d="M404.007,262.015l-5.233,0.762l-8.779-0.197c-0.1,0.264-6.496,0.475-2.166,0.707   c0.848-0.042,2.521-0.12,3.872-0.096c-0.979,0.566-11.676,0.283-9.095,0.857c6.943-0.15,8.009-0.025,12.283-0.486   c6.365,0.053,11.001,0.183,13.974,0.391c1.89-0.087,2.155-0.436,4.556-0.504c-0.531,0.007-1.02,0.014-1.63,0.021l-0.26-0.854   c-2.002,0.18-3.895,0.096-6.116,0.113l10.277-0.997c-3.314-0.799-13.412-0.329-17.447-0.661   C403.247,261.791,394.258,261.428,404.007,262.015z" fill="#202020"/><path d="M413.418,263.449c0.066-0.001,0.176-0.002,0.253-0.002C413.594,263.447,413.485,263.448,413.418,263.449z" fill="#202020"/><path d="M193.656,243.586c2.185-0.015,2.829-0.217,3.145-0.318l-24.604,0.016c0.771,0.224,7.857,0.501,3.122,0.635   c2.112,0.248,8.544,0.036,9.478-0.267l-1.783,0.342c5.668-0.438,9.541,0.422,5.844,0.681l0.479-0.004l15.7-1.685   C199.271,242.887,200.596,243.566,193.656,243.586z" fill="#202020"/><path d="M382.546,244.444c-3.188,0.078-3.579,0.159-3.218,0.242C380.471,244.623,381.557,244.551,382.546,244.444z" fill="#202020"/><path d="M208.705,242.59l4.918-0.527C211.654,242.205,209.924,242.395,208.705,242.59z" fill="#202020"/><path d="M174.635,250.61c-0.01,0.028-0.063,0.053,0.066,0.09l2.208-0.27c-0.033,0-0.043,0-0.057,0   C176.04,250.496,175.309,250.555,174.635,250.61z" fill="#202020"/><path d="M240.61,171.658c-0.012-0.528-0.022-0.983-0.037-1.614C240.587,170.632,240.599,171.163,240.61,171.658z" fill="#202020"/><path d="M107.984,253.623l10.938-0.507c-1.458,0.24,3.819,0.168,1.514,0.448c0.833-0.038,4.742-0.133,3.676-0.257   l-2.232,0.016c5.769-0.699,2.275-0.968,11.839-1.501c-5.938-0.415-8.541-0.035-11.686,0.283c-1.066,0.036-1.959,0.066-2.862,0.097   l-9.096,0.978L107.984,253.623z" fill="#202020"/><path d="M263.584,210.121l-0.054-0.12C263.549,210.111,263.568,210.131,263.584,210.121z" fill="#202020"/><path d="M263.307,209.523l0.224,0.478C263.418,209.413,263.311,207.162,263.307,209.523z" fill="#202020"/><path d="M206.899,243.043c0.149-0.13,0.78-0.289,1.806-0.453l-3.669,0.396   C205.557,243.002,206.245,243.023,206.899,243.043z" fill="#202020"/><path d="M198.551,244.571l-9.215,0.1l-3.397,0.363C189.465,244.896,193.59,244.802,198.551,244.571z" fill="#202020"/><path d="M240.199,186.213c-0.107-19.087,0.823,4.689,1.021-4.081c-0.097-5.3-0.487-7.169-0.61-10.474   c0.334,15.139-1.287-2.052-1.08,13.216c-0.707-2.171-0.771-11.011-0.579-16.192c0.681-5.864,0.499,5.124,1.167,6.452   c-0.111-6.126-0.235-5.047-0.615-7.647c0.158-9.62-0.837-19.905,0.107-25.649c-0.15-6.964-0.476-6.505-0.835-10.51   c-0.729-0.797-0.383,10.357-0.957,12.938c0.062-0.535,0.185-1.577,0.287-1.275l-0.153,6.021c0.254-5.715,0.729,0.793,0.786,3.849   c0.015,2.222,0.047,6.638-0.154,6.03l-0.157-3.364c-0.23,4.33,0.532,9.554,0.137,14.126c-0.164,0.239-0.241-1.491-0.342-1.753   c0.498,5.124,0.469,10.065,0.821,17.65l-0.723-4.396c0.8,6.067,0.573,19.805,0.15,29.325c0.123-1.056,0.208-2.959,0.348-1.816   c0.173,5.592-0.323,9.816-0.704,7.226c0.3,2.731,0.173,7.935,0.07,13.386c-0.052,2.726-0.098,5.513-0.083,8.085l0.003,0.443   l0.005,0.018l0.015,0.038c0.012,0.026,0.029,0.056,0.052,0.091c0.077,0.112,0.148,0.215,0.211,0.307   c0.066,0.096,0.133,0.206,0.133,0.266c0.058,0.295-0.176,0.59-0.7,0.885l-8.009,0.886l-16.188,1.771   c1.282-0.092,2.653-0.167,4.068-0.199c3.112,0.635,4.789,0.558-0.664,1.156c5.353-0.336,3.308-0.846,11.351-0.872   c-3.155,0.319-3.952,1.048,3.752,1.123c1.249-0.047,2.47-0.093,3.667-0.138c0.599-0.026,1.191-0.053,1.778-0.079l0.361-0.021   l0.277-0.021l0.544-0.043c1.431-0.117,2.706-0.25,3.82-0.393c-0.102-1.003-0.21-1.936-0.321-2.798   c-0.057-0.416-0.114-0.829-0.17-1.24l-0.086-0.581l-0.022-0.141l-0.022-0.258l-0.044-0.549c-0.241-2.926-0.479-5.81-0.718-8.722   c-0.479-5.825-0.942-11.77-1.284-18.432c0.489-0.664,0.352-14.787,0.467-21.651c0.525,2.62,0.675,7.714,0.781,13   c0.018-3.317,0.048-9.029,0.07-13.267L240.199,186.213z" fill="#202020"/><path d="M241.843,230.936c0.044-0.481,0.068-0.979,0.091-1.491C241.893,229.718,241.862,230.163,241.843,230.936z" fill="#202020"/><path d="M241.143,202.816c0.019,0.066,0.033,0.043,0.053,0.066c-0.012-0.554-0.025-1.109-0.038-1.677   C241.154,201.774,241.147,202.415,241.143,202.816z" fill="#202020"/><path d="M211.412,244.148c-1.145,0.117-1.986,0.203-3.131,0.319c0.705-0.037,1.587-0.083,2.438-0.128   C211.528,244.274,211.913,244.207,211.412,244.148z" fill="#202020"/><path d="M207.56,243.287l0.611-0.201c-0.492-0.017-0.836-0.028-1.271-0.043   C206.766,243.152,206.909,243.242,207.56,243.287z" fill="#202020"/><path d="M244.622,113.273l-0.106-1.83C244.524,112.545,244.567,113.02,244.622,113.273z" fill="#202020"/><path d="M241.03,164.95c0.047,6.638,0.73,0.793,0.733,10.185l0.044-2.756c0.313,6.738,0.169,18.579,0.194,26.585   c-0.291-0.903-0.354,4.855-0.805,3.918c0.106,5.473,0.207,10.892,0.672,13.711c-0.152,3.391,0.258,8.541,0.065,12.852   c0.273-1.82,0.924,6.137,0.59-4.354c0.037,0.847,0.1,0.315,0.138,1.152c0.381-6.758-0.265-9.468-0.274-15.289   c0.269-3.48,0.435,5.692,0.543,2.408c-0.251-7.269,0.325-22.81-0.69-22.329c-0.071-5.29,0.152-6.021,0.338-7.598   c-1.081-8.368,0.464-31.055-0.918-30.979c0.055,3.055,0.025,8.033,0.321,12.516L241.03,164.95z" fill="#202020"/><path d="M222.56,244.076c0.408,0.004,0.953,0.01,1.292,0.014C223.469,244.086,222.994,244.081,222.56,244.076z" fill="#202020"/><path d="M138.79,240.073l2.776-0.903c15.807-0.216,21.522,0.038,35.343,0.002c1.056,0.124-0.621,0.202-1.471,0.242   c9.716-0.104,24.255,0.085,31.328-0.33c3.092,0.007,11.208,0.294,8.136,0.56c1.504-0.08,3.224-0.157,4.955-0.128   c0.458,0.324-3.872,0.093-3.972,0.358c1.371,0.022,1.906,0.085,2.222-0.018c-2.308,0.279,2.394,1.102-8.369,1.081   c-4.167-0.759,7.465-0.088,5.004-0.925c-3.57-0.006-3.155,0.318-3.46,0.42c-4.55-0.019-4.43-0.229-4.188-0.42   c-1.744,0.26-7.465-0.102-9.873,0.292c-8.847,0.065,0.481-0.628-5.297-0.619l-3.331,0.848l-9.607-0.16   c-13.907,0.298,1.989,1.465-13.907,1.944c2.089-0.442-4.287-1.186-11.686-1.362c4.426-0.031,12.609-0.584,18.324-0.332   c-8.056-0.664,11.088-0.08,6.907-0.84c-3.981,0.359-10.62,0.408-15.797,0.214l1.697-0.078c-5.506-0.09-9.673,0.797-17.271,0.458   c-3.776,0.027-3.068-0.212-2.404-0.41C141.656,240.094,138.801,240.26,138.79,240.073z M147.016,239.895l5.051,0.084   C150.868,239.839,148.985,239.844,147.016,239.895z" fill="#202020"/><path d="M333.365,262.127c0.501,0.022,1.079,0.048,1.534,0.068C334.564,262.156,333.983,262.138,333.365,262.127z" fill="#202020"/><path d="M201.472,261.801l2.925,0.028C203.256,261.801,202.319,261.797,201.472,261.801z" fill="#202020"/><path d="M252.999,287.133l0.198,4.274C253.184,289.719,253.105,288.398,252.999,287.133z" fill="#202020"/><path d="M298.481,262.068l-0.143-0.006c-0.239,0.016-0.422,0.027-0.674,0.045L298.481,262.068z" fill="#202020"/><path d="M251.029,418.665c-0.053,0.328-0.105,0.715-0.003,1.219C251.095,419.801,250.999,419.36,251.029,418.665z" fill="#202020"/><path d="M252.962,286.345c-0.007,0.11-0.01,0.173-0.016,0.26c0.017,0.166,0.035,0.349,0.053,0.527L252.962,286.345z   " fill="#202020"/><path d="M172.549,259.329c-0.627,0.028-1.199,0.054-1.873,0.085C171.559,259.396,172.1,259.365,172.549,259.329z" fill="#202020"/><path d="M176.673,261.732c-0.674,0.021-1.318,0.047-1.82,0.084L176.673,261.732z" fill="#202020"/><path d="M89.531,255.07c0,0,0.023-0.096,0.041-0.247c0.043-0.142,0.081-0.342,0.159-0.53   c0.041-0.093,0.074-0.189,0.105-0.281c0.049-0.083,0.091-0.162,0.125-0.232c0.058-0.146,0.128-0.225,0.128-0.225   C89.624,254.23,89.545,254.727,89.531,255.07z" fill="#202020"/><path d="M166.249,261.177c-0.229,0.039-0.458,0.076-0.611,0.115C166.183,261.265,166.442,261.217,166.249,261.177z" fill="#202020"/><path d="M358.394,264.652c-0.09,0.002-0.187,0.003-0.239,0.004l-0.1,0.098L358.394,264.652z" fill="#202020"/><path d="M367.971,263.418c1.129-0.022,2.305-0.046,3.46-0.07C370.146,263.344,368.894,263.369,367.971,263.418z" fill="#202020"/><path d="M262.348,392.367c0.123-1.043,0.27-3.49,0.41-2.348C262.58,388.023,262.152,388.156,262.348,392.367z" fill="#202020"/><path d="M339.194,269.957c0.627-0.113,1.407-0.201,2.191-0.287C339.927,269.793,338.649,269.894,339.194,269.957z" fill="#202020"/><path d="M341.385,269.67c0.72-0.065,1.49-0.134,2.135-0.191C342.77,269.533,342.049,269.597,341.385,269.67z" fill="#202020"/><path d="M269.36,419.028c-0.061,0.347-0.153,0.871-0.278,1.583C269.226,420.421,269.36,419.845,269.36,419.028z" fill="#202020"/><path d="M374.227,263.484c0.621-0.202,15.668-0.641,3.012-0.744c0.488-0.629,8.119-0.291,11.493-0.447   c-2.45-0.147,1.219-0.404,0.476-0.629c-1.674,0.076-3.663,0.258-6.43,0.213c-1.271-0.287,2.926-0.482,6.203-0.375   c-4.038-0.332,5.124-0.499-0.591-0.754c-12.217,0.223-20.851,0.451-29.441,1.369c6.964-0.15,14.754-0.338,20.466-0.086   l-2.401,0.545c-6.455-0.479-10.44-0.121-16.789-0.172l14.262,0.289c6.682,0.452,2.212,0.557-3.055,0.654   C372.726,263.355,373.899,263.387,374.227,263.484z" fill="#202020"/><path d="M364.616,268.258l0.239,0.016c0.209-0.02,0.469-0.033,0.602-0.056L364.616,268.258z" fill="#202020"/><path d="M78.601,253.657c0,0,0.004-0.468,0.064-0.932c0.066-0.467,0.132-0.933,0.132-0.933   C78.468,253.33,78.551,253.821,78.601,253.657z" fill="#202020"/><path d="M356.109,265.623h0.011C356.023,265.629,355.999,265.629,356.109,265.623z" fill="#202020"/><path d="M106.715,271.135c-0.043,0.015-0.086,0.031-0.163,0.047C106.662,271.166,106.662,271.149,106.715,271.135z" fill="#202020"/><path d="M114.864,259.406c-0.057-0.025-0.073-0.049-0.206-0.074C114.007,259.362,114.323,259.387,114.864,259.406z" fill="#202020"/><path d="M106.738,271.084c0,0.018,0.02,0.033-0.023,0.051C106.738,271.117,106.791,271.099,106.738,271.084z" fill="#202020"/><path d="M242.913,274.963c0,0,0.021-0.118,0.058-0.326c0.016-0.105,0.036-0.233,0.059-0.38   c0.02-0.102,0.042-0.217,0.066-0.343c-0.025-0.091-0.053-0.088-0.083,0.032c-0.015,0.064-0.031,0.14-0.048,0.279   C242.952,274.418,242.934,274.661,242.913,274.963z" fill="#202020"/><path d="M225.704,268.282c-0.186-0.021-0.296-0.033-0.535-0.06L225.704,268.282z" fill="#202020"/><path d="M259.899,399.287c-0.008,1.448,0.006,2.534,0.029,3.45C259.942,401.681,259.94,400.539,259.899,399.287z" fill="#202020"/><path d="M106.552,271.181c-0.305,0.059-0.74,0.117-1.458,0.191C105.885,271.295,106.303,271.234,106.552,271.181z" fill="#202020"/><path d="M245.661,319.573c-0.021-0.313-0.04-0.604-0.06-0.899c-0.009,0.179-0.019,0.358-0.027,0.534   L245.661,319.573z" fill="#202020"/><path d="M245.26,334.842c-0.062-0.521-0.126-0.76-0.182-1.053c0.226,5.45-0.02,15.462,0.559,16.647   c-0.014-1.85,0.326-11.437,0.665-9.803c-0.145-3.799,0.261-9.415,0.166-11.46c-0.316,6.236-0.488,0.674-0.684-3.537   c0.169-3.828,0.466,0.721,0.573-2.576l-0.064-8.86l-0.076,7.718l-0.557-2.345c0.019,0.286,0.032,0.481,0.053,0.787   C245.973,333.418,244.899,321.469,245.26,334.842z" fill="#202020"/><path d="M245.079,333.789c-0.035-0.816-0.078-1.534-0.137-2.092C244.951,332.929,245.008,333.407,245.079,333.789z" fill="#202020"/><path d="M244.161,387.134c0.026,0.671,0.053,1.397,0.088,2.312C244.233,389.01,244.194,388.001,244.161,387.134z" fill="#202020"/><path d="M179.39,244.942c-0.229-0.164-7.837-0.502-7.701-0.074c2.258,0.044,4.533,0.089,6.817,0.134L179.39,244.942   z" fill="#202020"/><path d="M265.352,335.958c-0.003,0.847-0.007,1.696-0.01,2.547c0.024,0.182,0.048,0.358,0.066,0.494   C265.471,338.481,265.393,336.804,265.352,335.958z" fill="#202020"/><path d="M246.504,342.984c-0.065-1.395-0.133-2.016-0.201-2.351C246.337,341.537,246.392,342.37,246.504,342.984z" fill="#202020"/><path d="M266.369,335.479c0.123-1.079,0.309-2.67,0.473-2.896c0.004-2.209-0.221-3.76-0.301-6.008   C266.604,329.113,266.561,332.049,266.369,335.479z" fill="#202020"/><path d="M266.533,326.393c0.002,0.063,0.005,0.127,0.008,0.183C266.538,326.513,266.535,326.457,266.533,326.393z" fill="#202020"/><path d="M183.916,245.123c0.654-0.029,1.328-0.059,2.022-0.09l-1.052,0.114c1.75,0.043,3.49,0.086,5.233,0.13   c0.631-0.02,1.315-0.042,2.155-0.068c-0.338,0.015-0.601,0.061-0.764,0.107c0.568,0.017,1.123,0.033,1.677,0.05   c4.167-0.443,14.538-0.767,17.53-1.027c3.958-0.189,8.803-0.297,11.842-0.263c-2.816-0.009-6.555,0.08-5.433,0.325   c5.718,0.255,8.498,0.99,18.367,0.358l-5.788,0.01c0,0,3.253-0.238,6.507-0.475c1.792-0.119,2.836-0.238,3.758-0.327   c0.864-0.089,1.44-0.148,1.44-0.148c1.814,0.197,0.745,0.315-1.13,0.428c-0.997,0.054-2.158,0.118-3.163,0.172   c-1.219,0.062-2.249,0.131-2.701,0.217c1.052-0.049,2.084-0.079,3.097-0.095c0.934-0.016,1.671-0.017,2.492-0.009   c1.594,0.017,3.148,0.075,4.665,0.138c0.089-1.955,0.191-3.824,0.21-5.516c-0.001-0.423-0.001-0.831-0.002-1.224   c-0.015-0.448-0.029-0.878-0.042-1.292c-0.043-0.838-0.12-1.604-0.24-2.289c0.488-0.661,1.303-1.77,1.254-8.412   c-0.557,4.789-0.358-3.981-0.954-0.053c-0.279-2.294,0.176-7.409-0.189-7.791l0.202,0.621c0.773-11.34-0.438-15.053-0.837-19.904   c-0.199-13.579,0.117-19.815,0.035-30.89c0.327-0.435,1.227-3.45,1.192-7.894c-0.442-2.065-0.647-12.087-1.215-13.11   c-0.236,7.943,0.476,6.499,0.608,11.254c-0.595,3.958-0.588,0.359-0.943,5.765c0.231-4.364-0.31-19.715,0.248-24.494l0.078,1.687   c0.339-7.627,1.741-9.085,0.893-21.794l-0.348-6.063c0.057,0.292,0.123,0.325,0.174,0.481c0.059-9.926,0.704-7.216,0.195-18.174   c0.039,0.847,0.102,0.315,0.14,1.175c0.04-0.781,0.064-1.563,0.077-2.342c0.015-0.753,0.003-1.605,0.123-2.432   c0.216-1.649,0.777-3.236,1.621-4.609c1.695-2.757,4.512-4.543,7.145-5.027c0.824-0.024,1.179,0.074,1.231,0.139   c0.052,0.076-0.201,0.12-0.601,0.223c-0.809,0.171-2.19,0.627-2.975,1.175c2.656-1.147,5.813-1.176,8.504-0.029   c2.699,1.121,4.864,3.359,5.926,5.968c0.546,1.287,0.793,2.715,0.857,3.997c0.078,1.221,0.154,2.398,0.226,3.52   c0.172,2.242,0.327,4.263,0.458,5.97l-0.277,7.083c-0.195-4.201-0.694-9.335-0.98-8.053c0.096,3.896,0.318,3.142,0.229,8.651   c-0.303-0.94-0.585-3.251-0.965-5.841c-0.506,11.394,1.072,2.547,0.145,10.52c-0.007,3.58,0.436,5.659,0.801,6.05l-0.479,6.486   c0.465,0.72,0.492,8.727,0.563,13.974c0.199,0.641,0.496-4.224,0.316-6.213c0.365,0.392,0.537,5.974,0.529,9.564   c-0.975,1.315,0.141,23.504-1.008,19.26c0.316,16.125,0.416,38.78,0.822,49.422c-0.27,3.51-0.283,10.663-0.74,6.376   c-0.002,5.172,0.156,9.346,0.33,13.317c0.085,1.881,0.169,3.715,0.254,5.593c0.077,1.66,0.14,3.303,0.171,5.07   c1.823-0.032,3.737-0.03,5.896,0.024c0.865,0.122-4.821,0.009-4.706,0.334c1.903-0.098,3.604-0.121,5.349-0.104   c1.959,0.017,4.074,0.072,6.263,0.132c4.411,0.12,9.403,0.255,15.938,0.125c-2.198,0.018-2.84,0.219-3.146,0.32   c-0.229-0.162,5.354-0.335,8.734-0.492c1.899,0.084-2.531,0.117-1.465,0.241c25.241,0.474,44.472-0.853,69.576-0.809   c-7.17-0.013-9.879,0.633-9.956,0.898l7.023,0.012c2.707-0.323,7.98-0.322,12.39-0.563c0.542,0.121,2.687,0.252,0.498,0.404   c13.875,0.654,21.672-1.18,38.674-0.844l-20.589,1.303l5.095,0.454l-9.053,0.593c5.406,0.357,10.108-0.469,10.759,0.021   c-1.142,0.138-3.895,0.094-3.981,0.358c5.19,0.191,5.599-0.174,9.501-0.269c-10.281,0.996-30.438,0.98-41.287,1.225   c-1.707,0.078,1.461-0.24,1.764-0.342c-4.427,0.033-7.083-0.277-12.655-0.104c-3.46,0.421,2.64,0.31,5.386,0.354   c-0.378,0.366-1.76,0.344-4.818,0.399c-0.664-0.488-16.789-0.173-20.731-0.769c-16.341,0.154,2.613,1.264-13.339,1.052   l-4.766-0.559c-9.262,0.432-21.239,0.814-31.72,0.695l2.208-0.018c1.472-0.239-0.959-0.386-2.035-0.508   c-3.96-0.12-7.719-0.01-11.088,0.06c-0.843,0.014-1.66,0.027-2.45,0.041c-0.959,0-1.885,0-2.773,0   c-1.86-0.019-3.551-0.082-4.946-0.221c-0.913,0.04-1.873,0.081-3.127,0.135c-0.132-2.688-0.255-5.859-0.37-9.347   c-0.104-2.752-0.213-5.661-0.323-8.589c-0.18-5.697-0.361-11.466-0.511-16.229c0.736-2.786,0.625,13.472,1.084,17.77l-0.002-9.401   c0.01,5.812,0.289,8.106,0.709,11.589c0.137-8.239-0.508-10.948-0.695-18.759c0.201,0.608,0.324-0.435,0.33-4.038l-0.49-1.022   c0.041-0.066,0.078-0.465,0.109-1.578l-0.299-13.897c-0.21,2.949-0.635,3.091-0.641,6.681c0.285-1.282,0.342,1.763,0.334,5.356   c-0.32-3.148-0.27,3.503-0.533,3.427c0.013-7.203-0.053-16.052-0.188-20.774l0.451-1.534c0.113-6.864-0.138-14.113-0.006-18.769   l0.238,1.468c0.139-8.235-0.152-16.345,0.287-23.657c-0.514-7.346-0.943-16.594-1.48-22.598c-0.582-3.211,0.729-21.555-0.09-29.837   c0.063-0.558,0.438,5.688,0.658,8.514c0.045-2.754-0.113-5.227-0.207-7.226c-0.019-0.5-0.036-0.97-0.053-1.408   c-0.008-0.379-0.016-0.731-0.021-1.052c0.017-0.461-0.002-0.828,0.102-1.132c0.054,0.24,0.059,0.474,0.099,0.686   c0.009,0.217,0.017,0.418,0.023,0.606c-0.001,0.563-0.001,1.04-0.002,1.443c0,0.838,0.011,1.365,0.03,1.667   c0.039,0.604,0.111,0.309,0.196-0.199c0.17-1.015,0.387-2.88,0.474-0.095c-0.003-0.724-0.006-1.452-0.009-2.178l-0.004-0.542   l-0.027-0.384c-0.002-0.257-0.045-0.507-0.092-0.754c-0.174-0.99-0.569-1.902-1.09-2.647c-1.054-1.504-2.507-2.263-3.426-2.475   c0.729,0.292,1.2,0.6,1.489,0.848c0.298,0.238,0.431,0.4,0.469,0.495c0.079,0.184-0.175,0.056-0.437-0.031   c-0.268-0.082-0.507-0.169-0.391-0.025c0.101,0.157,0.66,0.437,1.57,1.585c-0.381-0.424-0.801-0.836-1.293-1.179   c-0.499-0.332-1.044-0.609-1.622-0.809c-1.152-0.362-2.502-0.428-3.703-0.023c-1.194,0.381-2.309,1.152-3.03,2.208   c-0.365,0.521-0.642,1.092-0.826,1.687c-0.099,0.297-0.146,0.604-0.206,0.911c-0.017,0.323-0.063,0.54-0.066,1.19   c-0.264-0.086-0.387,0.993-0.496,4.257l0.383,2.633c-0.069,4.098-0.453-7.923-0.589,0.325c0.655,8.488-0.372,25.56,0.839,29.276   c-0.478,6.469-0.484-12.31-1.07-2.561c-0.438-5.671,0.063-13.495-0.541-15.365c0.172,5.559-0.511,2.029-0.517,5.615l0.373,6.2   l0.023-1.372c0.571,10.404,0.297,26.888,0.394,40.175c0.609,11.254,1.489,19.001,1.423,32.5c-0.357-3.985-0.344,11.211-0.999,2.713   c-0.315,6.247,0.058,12.413,0.322,12.536c0.091-5.496,0.085-1.933,0.215-6.562c0.32,3.125,0.306,10.328,0.097,13.286   c0.023-1.372-0.038-0.85-0.139-1.152c-0.215,6.562,0.318,3.145,0.452,7.887c-0.224,0.752-0.254,3.37-0.257,6.341   c-0.001,1.485-0.003,3.059-0.005,4.532c-0.009,0.736-0.018,1.448-0.026,2.11c-0.023,0.938-0.044,1.807-0.063,2.575l0.639,10.093   c-0.157-2.194-0.218-1.4-0.253,0.444c-3.193-0.059-9.308-0.045-10.291-0.287c-0.852,0.041-1.687,0.081-2.516,0.12l-1.638,0.131   c-1.095,0.083-2.204,0.166-3.385,0.254c-2.364,0.153-5.022,0.255-8.451,0.198c2.833-0.219-6.256-0.316-6.375-0.742   c-11.742-0.408-19.446,1.162-30.567,0.552c0.345-0.1,2.59-0.38-0.661-0.487c-2.56,0.119-7.043,0.069-9.783,0.115l0.086-0.012   c-0.053,0.004-0.086,0.007-0.143,0.012c-1.341,0.023-2.185,0.076-2.218,0.179c-4.689,0.417-7.106,0.844-16.334,1.197   c0.677,0.488,8.468,0.299,11.842,0.142l2.916-0.481c2.786,0.736,8.322-0.128,10.444,0.12c-5.536,0.863-21.479,0.651-31.042,1.182   c5.831,0.68,18.517,0.786,29.584,0.704l-4.875-0.292l5.792-0.009l-5.605-0.519c5.486,0.091,10.228-0.042,15.186-0.013   c-5.805,0.01-8.066-0.663-4.782-0.557c6.469,0.479,6.741-0.313,11.686-0.283c-2.753-0.044-6.333-0.053-4.025-0.332   c9.75,0.586,12.383,0.204,21.25,0.83c-1.099-0.813,11.078-0.081,12.406-0.748l-4.114-0.068l8.727-0.492   c4.026,0.331,2.244,0.5,0.987,0.645c-0.629,0.072-1.126,0.139-0.7,0.216c0.212,0.039,0.656,0.08,1.429,0.126   c0.387,0.021,0.856,0.044,1.42,0.074c0.282,0.013,0.587,0.026,0.918,0.041c0.565,0.013,1.173,0.027,1.826,0.042   c5.552,0.023,9.494-0.028,12.453-0.114c-0.111-4.167-0.28-6.973-0.427-10.037c-0.059-1.411-0.121-2.905-0.194-4.672   c-0.053-1.126-0.09-2.428-0.101-4.028c0.095,0.579,0.188,1.319,0.275,2.189c0.04,0.436,0.082,0.903,0.126,1.399   c0.019,0.248,0.039,0.503,0.059,0.766c0.01,0.186,0.019,0.375,0.029,0.565c0.009,0.23,0.019,0.462,0.028,0.698   c0.147,3.77,0.261,8.356,0.32,13.234c-2.505,0.015-5.115,0.029-7.735,0.044l7.847,0.232c-1.902,0.14-7.388,0.195-13.514,0.211   c-3.534-0.007-7.415-0.015-9.998-0.02c8.182-0.553-3.829-0.17-7.551-0.603c-0.684,0.467,4.569,0.394-1.634,0.768   c5.811-0.009,6.661-0.048,14.053,0.128c-15.979-0.212-14.369,1.618-28.316,1.227c6.429-0.211-2.241-0.673-3.015-0.899   c-3.025,0.056-9.162,0.167-11.686,0.284l2.285,0.674c-8.126,0.291-10.949-1.136-20.327-0.441c-1.218,0.403,8.249,0.137,6.562,0.215   c-12.832,0.423-17.454-0.662-28.847-1.169c-0.645,0.202-0.512,0.629-4.497,0.985c1.252-0.404-1.697-0.611,2.786-0.907   c-3.809-0.171-8.322,0.126-11.682,0.283c7.93,0.237-3.245,0.581-4.706,0.823c-4.108-0.068,1.252-0.403,3.779-0.521   c-3.297-0.108-7.216-0.704-9.089-0.099c-0.129-0.426,9.219-1.12,15.332-1.23l-4.121-0.068c2.839-0.218,3.371-0.156,7.462-0.09   c-4.005-0.33-3.61-0.694-2.677-0.998c0.525,0.062-0.292,0.101,0.209,0.162c3.294,0.108,5.821-0.008,5.057-0.234   c2.962-0.572-4.569-0.357-6.801-0.643c-1.687,0.039-3.374,0.077-5.027,0.114l-17.115,1.837c-7.313,0.214-10.6-0.226-16.092-0.503   l-1.508,0.491c-3.181-0.025-6.273-0.077-8.06-0.2c-0.195-0.007-0.338-0.046-0.456-0.081c-0.111-0.017-0.185-0.053-0.212-0.101   c-0.049-0.086,0.078-0.272,0.554-0.437c0.044,0.041,0.036,0.06,0.17,0.08c0.132,0.02,0.302,0.031,0.508,0.038   c0.412,0.005,0.967,0.013,1.657,0.021c0.183-0.066,0.501-0.114,0.903-0.152c0.133-0.029,0.206-0.058,0.315-0.086   c-0.852,0.02-1.664,0.039-2.433,0.057c-0.36,0.011-0.813,0.013-1.067,0.031c-0.169,0.031-0.337,0.025-0.492,0.057   c-0.623,0.105-1.123,0.308-1.502,0.542c-0.775,0.442-1.087,0.896-1.148,0.951c0.805-1.053,1.513-1.342,1.736-1.592   c0.262-0.188,0.13-0.292-0.173-0.327c-0.146-0.001-0.342-0.01-0.541,0.003c-0.19,0.031-0.405,0.038-0.583,0.055   c-0.346,0.043-0.626-0.002-0.484-0.337c0,0-0.394,0.233-0.878,0.711c-0.491,0.466-1.041,1.199-1.378,2.017   c-0.35,0.814-0.48,1.69-0.464,2.351c-0.022,0.329,0.052,0.601,0.047,0.792c0.037,0.187,0.058,0.293,0.058,0.293   c-0.063-1.054,0.105-1.574,0.185-1.732c0.082-0.164,0.1,0.005,0.099,0.333c-0.015,0.675,0.245,1.963,0.583,2.549   c-0.164,0.233,0.36,1.563,1.68,2.45c0.639,0.443,1.417,0.755,2.171,0.884c0.191,0.022,0.379,0.037,0.56,0.068   c0.186,0,0.366,0.002,0.54,0.015c0.622,0.002,1.198,0.004,1.702,0.006l-0.302,0.1c3.795,0.17,10.447,0.123,15.179-0.01   c-0.216-0.164,5.854-0.965,8.77-1.447c-8.119-0.184-3.301-0.381-3.952-0.684c0.84,0.027,2.351,0.033,2.527-0.029   c1.163-0.14-1.577-0.186-1.806-0.348c-8.631,0.229-17.51,0.293-21.03,0.977c2.65,0.309,4.516-0.297,7.481-0.09   c-2.139,0.23-4.587,0.322-7.396,0.355c-0.351,0.004-0.708,0.007-1.071,0.011c-0.235-0.011-0.338-0.021-0.519-0.019   c-0.316-0.053-0.643-0.099-0.958-0.223c-0.633-0.225-1.27-0.618-1.774-1.207c-0.01,0.008-0.094-0.256-0.148-0.51   c-0.045-0.262-0.074-0.502-0.074-0.502c0,0-0.084-0.152-0.209-0.381c-0.104-0.236-0.258-0.558-0.314-0.913   c-0.06-0.172-0.039-0.361-0.085-0.531c0.014-0.171-0.014-0.336-0.003-0.473c0.022-0.273,0.034-0.458,0.047-0.454   c-0.006,0.618,0.16,0.753,0.314,1.074c0.064,0.149,0.148,0.345,0.285,0.665c0.117,0.303,0.297,0.71,0.7,1.208   c0.036-0.236-0.313-0.712-0.509-1.436c-0.224-0.743-0.105-1.748,0.386-2.351c-0.013-0.008-0.001-0.231,0.015-0.496   c0.046-0.236,0.094-0.519,0.106-0.508c-0.014,0.112,0.162,0.042,0.385-0.086c0.243-0.102,0.535-0.275,0.803-0.313   c0.252-0.073,0.452-0.054,0.445,0.007c0.004,0.084-0.208,0.203-0.618,0.575c0,0-0.18,0.136-0.389,0.394   c-0.213,0.253-0.438,0.631-0.554,1.022c-0.25,0.776-0.013,1.598,0.003,1.57c0,0,0.013-0.054,0.032-0.134   c0.046-0.084,0.073-0.19,0.119-0.29c0.102-0.206,0.225-0.363,0.225-0.363c-0.011-0.02-0.072,0.591,0.119,1.076   c0.083,0.248,0.237,0.47,0.371,0.618c0.129,0.152,0.228,0.244,0.229,0.243c0.003,0.021-0.565-0.205-0.551-0.236   c0.636,0.739,1.166,0.887,1.454,1.05c0.149,0.094,0.271,0.133,0.366,0.212c0.051,0.025,0.095,0.057,0.137,0.09l0.062,0.053   c0.015,0.019,0.034,0.037,0.127,0.051c1.161,0.237,2.334,0.441,10.175,0.12c4.908-0.659,10.185-0.73,19.795-0.569   c-6.954,0.146-0.714,0.465-3.331,0.846c7.093,0.275,9.487-0.268,13.167-0.525c1.806,0.349,3.091,0.633-3.245,0.582   c-0.793,0.73,8.335-0.125,8.913,0.625c20.99-0.021,16.819-2.426,41.356-1.486l-0.92,0.303c15.581-0.377,24.57-0.016,38.999-0.254   l11.36,0.77c-2.54,0.119-9.371,0.694-6.183,1.066c-5.526-0.779-11.39-0.508-17.344-0.926c-0.608,0.203,1.816,0.35,2.873,0.475   c-3.593-0.008-5.396-0.357-10.142-0.222c0.229,0.161,5.406,0.354,1.504,0.448l-6.456-0.479c-8.637,0.229-4.254,1.147-14.399,0.928   c1.886-0.428,5.738-1.047,9.667-1.15c-4.636-0.092,6.18-0.258,1.949-0.514c-6.678,0.633-9.903,0.131-18.782,0.528   c1.042-0.089,1.318-0.212,3.503-0.251l-12.885-0.268c3.188,0.37-10.643,0.406-9.444,0.957c13.731,0.229,9.696-0.104,25.344,0.209   c-4.43,0.125-10.142,0.686-12.818,1.201c-0.136-0.021-0.362-0.039-0.844-0.049c-2.391,0.545,0.046,0.691,0,1.645   c7.143-0.678,11.918-0.121,20.343-0.511c1.584-0.522-4.888-0.665-9.075-0.53l7.422-0.346l-1.461,0.24l18.839,0.174   c-3.57,0.028-4.782,0.331-6.645,0.559c2.431,0.021,4.838,0.158,7.398,0.311c-0.538-0.498-0.199-0.85,2.172-0.841   c12.121,0.118,18.858,0.565,23.332,1.135c0.465-0.012,0.99-0.024,1.412-0.035c-1.017-0.255,1.135-0.484,4.011-0.715   c1.438-0.111,3.056-0.236,4.55-0.351c2.146-0.12,4.346-0.243,5.839-0.373c-0.288,0.305,2.876,0.362,6.56,0.41   c-0.034,2.708-0.063,5.713-0.176,7.928c0.303,1.267,0.663,1.01,1.01-0.596c0.346-1.597,0.679-4.569,0.927-8.462   c-0.012-0.294-0.024-0.577-0.035-0.596c-6.793,0.259-8.554,0.395-9.601,0.561c-1.005,0.166-1.293,0.364-4.264,0.748l-13.204,0.524   l2.939-0.484c-6.562-0.213-12.864,0.426-12.383-0.203c3.467-0.419,9.192-0.164,12.632-0.585l-4.34-0.229   c7.658-0.618,3.925,0.594,13.197,0.164c-1.705-0.268-1.495-0.277-0.362-0.265c0.599,0.013,4.485,0.047,7.837-0.132   c-1.297-0.094-3.762-0.131-6.516-0.147c-1.636-0.01-3.49-0.021-5.157-0.03c-3.334-0.028-5.922-0.125-4.529-0.578   c1.896-0.156,4.807-0.025,8.03,0.137c0.403,0.021,0.811,0.041,1.222,0.062l0.73,0.031l1.096,0.03   c1.452,0.036,2.918,0.073,4.379,0.11c2.906,0.064,5.756,0.104,8.494,0.087c0.019,2.962,0.104,5.65,0.296,7.983l-0.103-0.504   c-0.006,2.068-0.011,3.97-0.016,5.725c0.012,1.157,0.023,2.218,0.034,3.197c0.037,1.688,0.101,3.094,0.179,4.316   c0.155,2.443,0.367,4.151,0.53,5.913c-0.294,4.004,0.12,9.533,0.153,13.874l-0.264-0.106l0.11,6.123   c-0.481-2.915,0.013-7.176-0.057-12.436l-0.491,0.653c0.583-6.063-0.303-10.108-0.726-14.811c0.425,6.845-0.12,19.327,0.839,20.935   l-0.495,4.233l0.179,2.026c-0.372,3.154-0.955-0.066-1.066-6.184c0.124-1.063,0.186-1.594,0.288-1.271   c-0.219-2.84-0.6-5.446-0.487-12.317l0.26,3.667c0.018-4.277-0.021-8.36-0.125-11.74c-0.051-1.689-0.119-3.204-0.204-4.479   c-0.052-0.881-0.099-1.68-0.141-2.387c-0.051-0.796-0.107-1.475-0.167-2.025c-0.067,6.637-0.133,13.218-0.198,19.697   c-0.01,6.029-0.019,11.965-0.028,17.763c1.109,3.42,1.731,7.479,2.762,9.222c0.19,7.78,0.332,18.344-0.045,25.102l-0.203-0.621   c-0.105,3.298-0.05,6.336,0.067,8.87c-0.271,3.483-0.545-2.385-0.691,0.043l0.346,11.145c-0.467-0.688-0.469-10.065-0.502-14.519   c0.04,0.84,0.117,2.537,0.18,1.992c0.192-5.18-0.603-14.83,0.072-17.095c-0.117-2.524,0.498,5.127,0.533-3.417   c0.254-5.722-0.352-7.585-0.554-8.183c-0.265-0.093-0.362,8.979-0.681,5.831c0.033,4.453,0.374,6.227,0.119,11.922   c-0.032-4.413-0.568-10.407-0.158-12.759c-0.493-8.727-1.733-7.475-1.801-3.36c0.389-0.979,0.479,15.92,0.985,4.477   c0.5,5.141,0.504,14.531,0.816,21.256l-0.1-0.306l0.125,8.349c-0.139-1.176-0.257-3.699-0.52-3.782l0.708,11.563   c-0.476-6.509-0.33,4.035-0.54,6.997c0.404,1.238,0.7,5.755,0.932,1.421c0.293-4.871-0.219-2.836-0.25-7.266l0.638,6.273   l-0.063,0.537l0.522,3.776c-0.037,8.544-1.213-3.732-0.703,7.216l0.711-1.425c-0.053,6.338-0.279,13.576-0.451,20.35   c-0.086,3.387-0.159,6.657-0.189,9.641c-0.004,1.492-0.007,2.912-0.011,4.239c0.009,0.663,0.017,1.304,0.025,1.918   c0.007,0.307,0.014,0.607,0.021,0.901c0.005,0.129,0.005,0.333,0.016,0.395l0.028,0.153c-0.028-0.055-0.06-0.108-0.094-0.161   c-0.031-0.088-0.056-0.264-0.085-0.382c-0.057-0.26-0.117-0.491-0.179-0.689c-0.124-0.396-0.255-0.658-0.386-0.736   c-0.131-0.078-0.261,0.026-0.382,0.364c-0.061,0.168-0.12,0.395-0.175,0.686c-0.024,0.146-0.051,0.307-0.081,0.484   c-0.019,0.129-0.039,0.27-0.062,0.423c0.015-0.922,0.032-2.075,0.052-3.37c0.006-1.357,0.013-2.862,0.021-4.42   c-0.019-3.115-0.04-6.439-0.056-9.21c0.125-1.065,0.841,6.921,0.688,12.938c1.164-2.916-0.703-15.137,0.477-15.844   c0.412-15.332-1.137-11.437-0.444-24.45c-0.527-0.18-0.257-3.7-0.722-4.384c-0.86,3.852,0.029,17.397-0.271,25.842   c-0.038-0.827-0.117-2.49-0.217-2.815c-0.154,6.037-0.037,8.53,0.158,12.748l0.063-0.531c0.515,7.368-0.394,4.56-0.625,8.896   c0.039,0.84,0.021,2.768,0.041,4.364c0.01,1.01,0.323,1.634,0.427,1.338c0.019-0.005,0.001,0.278,0.123,0.672   c0.079,0.408,0.29,0.93,0.566,1.431c0.264,0.515,0.663,0.947,0.963,1.271c0.163,0.15,0.299,0.276,0.395,0.363   c0.104,0.077,0.164,0.121,0.164,0.121s0.031-0.152,0.062-0.305c0.035-0.149,0.07-0.298,0.07-0.298   c1.033,0.617,1.729,0.883,2.445,1.012c0.709,0.104,1.487,0.117,2.454-0.428l-0.095-0.525c-0.001,0-0.315,0.118-0.809,0.212   c-0.49,0.084-1.191,0.088-1.836-0.055c-0.647-0.135-1.243-0.426-1.645-0.71c-0.215-0.12-0.351-0.283-0.474-0.356   c-0.102-0.102-0.16-0.159-0.16-0.159c0.531,0.399,0.884,0.537,1.117,0.579c0.231,0.05,0.335,0.041,0.456,0.009   c0.12-0.037,0.224-0.01,0.477-0.02c0.24,0.022,0.616,0.06,1.258,0.024c-0.718,0.154-0.981,0.146-0.929,0.232   c0.026,0.035,0.13,0.071,0.288,0.124c0.162,0.016,0.381,0.074,0.628,0.068c1.021,0.124,2.307-0.538,2.575-0.45   c0,0,0.419-0.379,0.734-0.821c0.334-0.434,0.516-0.932,0.517-0.932c0,0-0.038,0.135-0.075,0.269   c-0.055,0.129-0.109,0.257-0.109,0.257c0.614-0.603,0.754-1.141,0.818-1.662c0.066-0.646,0.002-0.655,0.022-3.053   c-0.039,0.608-0.076,1.19-0.112,1.756c-0.065,0.371-0.082,0.537-0.174,0.787c-0.146,0.455-0.321,0.867-0.583,1.249   c-0.51,0.757-1.165,1.528-2.347,2.156c0.875-0.411,1.96-1.499,2.231-2.683c0.036-0.145,0.083-0.282,0.09-0.428   c0.034-0.138,0.044-0.278,0.043-0.416c0.023-0.132,0.008-0.269,0.001-0.396v-0.228c-0.005-0.16-0.01-0.316-0.015-0.469   c-0.029-1.22-0.053-2.191-0.065-2.74c-0.221-4.742,0.18-8.054,0.24-12.49c0.211,8.515,1.596-2.981,1.218,14.08   c-0.101-0.315-0.078-1.696-0.017-2.231c-0.168,0.569-0.249,1.492-0.272,2.616c-0.003,0.28-0.005,0.573-0.008,0.877   c0.001,0.145,0.001,0.292,0.002,0.441l-0.01,0.233c0.009,0.159,0.006,0.32-0.02,0.48c-0.004,0.165-0.019,0.331-0.057,0.493   c-0.102,0.662-0.335,1.347-0.679,1.938c-0.339,0.594-0.784,1.074-1.169,1.402c0.336,0.03,0.05,0.334,0.083,0.433   c0.016,0.041,0.129,0.049,0.436-0.113c0.298-0.168,0.829-0.48,1.481-1.252c-0.245,0.229-0.28,0.131-0.17-0.165   c0.125-0.286,0.335-0.812,0.518-1.469c0.091-0.33,0.165-0.698,0.198-1.095c0.021-0.197,0.045-0.399,0.033-0.611l0.009-0.336   l-0.008-0.582c-0.017-1.563,0.004-3.213,0.083-4.772l0.83,1.099l0.098-9.085l0.039,0.85c0.533-3.417-0.104-9.693,0.211-15.949   c-0.297-4.517-0.061-21.844-0.929-14.389c0.519-5.615-0.142-10.544-0.253-16.671l-0.339,7.638   c-0.593-9.028-0.21-6.429-1.153-13.654c0.227-0.73,0.412-2.341,0.651-0.873c0.044-12.131,0.278-29.455-0.401-36.572   c0.037-8.551,1.014-9.892,0.63-21.89c-0.116-2.527-0.774,1.969-0.536-5.975c0.061-0.534,0.613,7.648,0.549-1.198   c-0.286-2.823-0.245-6.088-0.162-9.568c0.021-0.871,0.043-1.755,0.065-2.648c0.018-1.442,0.035-2.9,0.054-4.369   c0.026-2.938,0.027-5.899-0.032-8.948c1.357-0.028,2.709-0.068,4.061-0.126c1.782,0.038,3.889,0.082,6.007,0.127   c1.045,0.016,2.092,0.031,3.104,0.046c0.641,0.017,1.259,0.033,1.83,0.048c2.223,0.07,3.708,0.175,2.926,0.428   c-1.014-0.013-2.089-0.024-3.191-0.037c-1.456-0.004-2.947-0.007-4.424-0.01c-3.475,0.02-6.885,0.039-9.779,0.057   c0.047,4.137,0.123,7.227,0.223,8.182c-0.152-0.788-0.227,1.067-0.291,2.165c-0.065,1.085-0.121,1.422-0.238-2.639   c-0.039,2.039-0.07,3.734-0.098,5.167c-0.008,0.911-0.014,1.654-0.02,2.285c0.008,1.262,0.051,2.068,0.098,2.843   c0.093,1.548,0.201,2.963,0.07,7.61c0.203,0.641,0.559-4.779,0.379-6.771c0.688-0.043,0.332,18.327,1.159,10.065   c0.03-4.967-0.314-8.187-0.575-11.241c-0.131-1.527-0.241-3.014-0.272-4.655c-0.003-0.578-0.006-1.17-0.009-1.779   c0.009-0.649,0.018-1.317,0.026-2.01c0.03-1.379,0.088-2.837,0.179-4.37c0.104,1.345,0.161,2.807,0.198,4.36   c0.025,1.411,0.053,2.922,0.081,4.472c0.055,2.328,0.146,4.773,0.508,6.965l0.277-7.073c0,0-0.03-0.321-0.077-0.803   c-0.047-0.663-0.109-1.548-0.171-2.434c-0.125-1.837-0.25-3.675-0.25-3.675l0.102,0.481c0.081-2.192,0.13-4.052,0.152-5.694   c2.888,0.038,5.023,0,6.892-0.082c0.933-0.041,1.796-0.094,2.641-0.153c0.426-0.032,0.844-0.063,1.261-0.095l0.599-0.051   l0.446-0.053c2.386-0.283,4.956-0.623,9.831-0.773c-6.476-0.479,1.497-1.195-3.374-1.488c7.475-0.088,12.964,0.004,13.014,0.693   c-13.983,0.563-0.793,0.729-13.721,1.416c2.121,0.248-3.079,1.01,4.625,1.086c8.681-0.492-2.597-0.574,6.061-0.803   c0.512,0.063,1.043,0.125,0.741,0.225c3.981-0.357,4.646,0.13,9.464-0.266l-1.143,0.138c5.94,0.419,6.499-0.474,11.612-0.019   c-2.045-0.512,3.434-0.42,6.605-0.738c-5.184-0.193-7.99-0.928-18.218-0.888c-1.235,0.405-0.488,0.63-4.688,0.825l6.647-0.049   c-1.435,0.066-2.526,0.17-3.842,0.252l-6.386-0.211c8.096-0.289,4.384-0.721,7.823-1.143c7.409,0.178,6.114-0.111,10.772,0.021   c-0.468,0.594,14.286,1.014,22.817,1.396c-1.325-0.009-3.035-0.019-3.959-0.023c-6.196,0.375,4.265,0.494,4.493,0.658l4.517-0.297   c-0.851,0.041-2.025,0.18-0.1,0.264c6.113-0.111,5.758-0.699,11.861-0.811c0.459,0.326-4.702,0.822-0.906,0.994   c1.309,0.285,5.476,1.045,13.585,0.756c0.574-0.125,2.677-0.195,5.114-0.25c-0.339,0.018-0.764,0.031-0.917,0.055l5.387,0.355   c-4.59,0.559-9.281-0.263-13.895,0.297l-0.392,0.531c-3.59,0.002-8.465,0.23-10.706,0.506c5.473,0.09,6.625-0.05,12.745-0.16   c0.856,0.336-3.453,0.584-4.074,0.621l0.913-0.303c-7.299-0.439-10.912,0.508-19.998,0.41c-1.371-0.021-0.534-0.061-0.229-0.162   c-7.355,0.514-14.571-0.189-21.722,0.488l2.332-0.279c-4.867,0.255-14.386,0.753-23.896,1.252l-0.076,0.206   c1.056,0.124-2.514,0.116-4.43,0.032l0.01-0.002c-4.77,0.239-9.353,0.47-13.101,0.658c1.199,0.127,2.733,0.234,4.493,0.264   c1.491-0.242,10.231-0.045,9.032-0.594c4.038,0.332,10.543-0.145,13.509,0.064c-5.403-0.354,3.763-0.52,4.709-0.824   c1.816,0.348,8.006-0.025,7.299,0.441c1.066,0.121-2.653-0.311-4.951-0.03c-5.658,0.436,10.36,0.384,3.311,0.798   c8.966-0.328,20.781-0.186,30.029-0.617l-5.177-0.19c4.111,0.068,13.841-0.036,14.568,0.19c-3.056,0.055-6.625,0.049-10.533,0.143   c-0.189,0.527,9.391-0.004,9.825,0.322l11.351-0.873l-4.971-0.029c3.131-0.32,13.525,0.066,21.229,0.141   c-4.42,0.721-11.623,0.018-19.729,0.308c-5.888,0.274,3.636,0.696-1.937,0.87c1.444,0.168,5.081,0.148,6.874-0.033l2.198,0.131   c-4.971,0.656-16.115,0.51-23.534,1.074c0.651-0.07,1.219-0.145,1.425-0.221c-5.712-0.255-11.513-0.244-17.082-0.07   c2.945,0.207,4.111,0.066,5.795-0.01c0.209,0.162-5.048,0.232-7.036,0.412c5.18,0.191,0.966,0.387,4.243,0.494   c-3.374,0.156-6.106,0.111-10.218,0.043c-2.132-0.248,1.764-0.342,1.328-0.666c-4.233,0.195-6.17-0.582-12.366-0.207   c8.242,0.137-2.172,0.707-5.011,0.925l1.381,0.022c-2.613,0.381-4.831,0.396-6.638,0.049c3.374-0.156,6.638-0.049,5.679-0.436   c-2.229,0.016-4.45,0.033-6.974,0.149l2.294-0.28l-11.074,0.082c-1.753,0.342-4.683,0.824-6.217,1.328   c-2.648-0.311-6.373-0.053-8.858,0.066l1.154-0.143c-0.291-0.014-0.604-0.029-0.935-0.046l-0.227-0.01l-0.102-0.01l-0.213-0.017   c-0.292-0.021-0.61-0.034-0.942-0.041c-0.663-0.016-1.375-0.007-2.013,0.02c0.059,1.538,0.201,2.804,0.359,2.974   c-0.064,0.285-0.206-0.033-0.381-0.731c-0.175-0.69-0.383-1.797-0.581-2.845c1.071-0.326,1.999-0.624-0.697-0.697   c-0.026,0.831-0.024,2.199,0.015,4.098c0.004,0.445,0.008,0.853,0.011,1.226c0.012,0.49,0.022,0.936,0.031,1.342   c0.027,0.811,0.066,1.463,0.114,1.998c0.097,1.071,0.228,1.676,0.368,2.154c0.283,0.957,0.606,1.411,0.774,4.088   c0,0-0.1-0.303-0.162,0.229c-0.07,4.104,0.297,4.517,0.451,7.891c0.146-2.461,0.154-6.027,0.014-7.176   c0.404,1.234-0.035,8.547,0.283,11.691c-0.623-4.081-0.238,7.934-0.557,4.766c-0.4,8.162,0.092,16.89,0.551,21.177   c-0.781,5.539,0.104,9.713-0.258,18.702c0.023-1.382-0.094-3.889-0.01-5.821c-0.496-5.124-0.26,9.314-0.713,1.428   c0.078,1.688,0.264,0.12,0.186-1.61c-0.057-3.025-0.273-5.874-0.5-5.114l-0.438,7.326l-0.119-2.558l-0.607,11.118   c0.1,0.302,0.225-0.74,0.285-1.275c-0.266,12.895,0.072,27.639-0.01,38.936c0.699,1.062,0.849,8.015,0.932,15.843   c0.044,3.914,0.091,8.047,0.133,11.772c0.033,1.863,0.078,3.624,0.142,5.204c0.018,0.395,0.034,0.778,0.051,1.15l0.014,0.275   l0.001,0.383c-0.003,0.261-0.006,0.518-0.009,0.77c-0.038,1.007-0.159,1.941-0.337,2.769c0.302-1.81,0.026-3.205-0.212-3.828   c-0.127-0.263-0.259-0.338-0.371-0.297c-0.057,0.024-0.109,0.087-0.157,0.19c-0.049,0.111-0.103,0.325-0.15,0.569   c0.002-0.168,0.004-0.348,0.006-0.538c-0.008-0.144-0.017-0.295-0.026-0.454c-0.023-0.317-0.049-0.665-0.077-1.04   c-0.059-0.749-0.125-1.605-0.198-2.542c-0.134-1.873-0.245-4.068-0.187-6.377c0.225-0.737,0.479-6.438,0.734-2.77   c-0.158-12.758-0.612,1.728-1.133-2.038c0.034,3.533,0.111,6.702,0.212,9.607c0.059,1.452,0.114,2.838,0.167,4.172   c0.016,0.333,0.031,0.663,0.047,0.989l0.021,0.495l-0.004,0.624c0.002,0.415-0.016,0.826-0.072,1.233   c-0.043,0.408-0.088,0.813-0.185,1.207c-1.276,6.42-7.093,10.793-13.236,10.641l-0.299-0.181c0-0.001-0.572,0.007-1.428-0.116   c-0.858-0.097-1.985-0.38-3.076-0.779c-1.074-0.438-2.112-0.982-2.821-1.496c-0.731-0.484-1.16-0.887-1.159-0.887   c1.409,1.292,2.634,2.04,3.418,2.482c0.774,0.467,1.117,0.637,0.899,0.668c-0.21,0.021-0.965-0.163-2.176-0.798   c-1.199-0.632-2.865-1.791-4.367-3.895c0,0,0.197,0.243,0.394,0.486c0.215,0.227,0.431,0.452,0.431,0.452   c-0.915-1.137-1.958-2.691-2.678-4.665c-0.191-0.489-0.35-1.004-0.475-1.543c-0.153-0.532-0.231-1.092-0.318-1.662   c-0.093-0.568-0.094-1.154-0.132-1.746c-0.006-0.421-0.012-0.848-0.019-1.278c-0.05-3.402-0.135-7.088-0.109-10.25l-0.458-4.286   c0.052-6.333,0.905-6.605,1.416-8.664c0.06-9.926-0.639-15.657-1.055-22.707c0.372-3.188,0.46-18.056,0.911-10.179   c-0.328-8.952-2.32-7.146-1.216-22.501l0.359,3.984c-0.075-14.681-0.789-35.618-0.411-42.382   c1.289,5.416,1.312-18.338,2.575-20.947c-0.144,0.363-0.241-0.834-0.32-2.223c-0.038-0.694-0.077-1.436-0.11-2.055   c-0.021-0.31-0.039-0.588-0.053-0.814c-0.018-0.188-0.037-0.271-0.056-0.344c0.148-0.763,0.292-2.252,0.031-3.481   c-0.127,1.94-0.455,1.39-0.687,1.336c-0.116-0.039-0.209,0.01-0.24,0.407c-0.016,0.199-0.016,0.485,0.003,0.905   c0.013,0.212,0.028,0.457,0.045,0.74c0.011,0.167,0.022,0.344,0.034,0.533c0.014,0.303,0.028,0.625,0.043,0.967   c-0.05-0.328-0.1-0.661-0.152-1.001c-0.05-0.294-0.099-0.392-0.146-0.594c-0.089-0.33-0.181-0.674-0.278-1.032   c-0.177-0.674-0.335-1.319-0.47-1.974c-1.019,0.149-1.986,0.269-2.976,0.348c-0.126,0.039-1.895,0.068-3.25,0.087   c-1.432,0.006-2.943,0.013-4.542,0.019l0.183-0.527c0,0,2.4,0.041,4.8,0.08c1.15,0.021,2.633,0.041,2.72,0.056   c0.371,0.015,0.618,0.024,0.618,0.024c-0.313-0.372,1.701-0.36,2.878-0.518c0.009,0.049,0.015,0.085,0.021,0.119   c0.002-0.056,0.004-0.11,0.005-0.146c-4.016-0.151-3.905-0.458-3.542-0.719c0.158-0.131,0.328-0.249-0.253-0.331   c-0.091-0.021-0.485-0.039-0.874-0.054c-0.409-0.011-0.911-0.023-1.525-0.038c-1.228-0.02-2.903-0.026-5.17-0.018   c-1.764,0.342-0.621,0.2-5.367,0.336c2.232-0.018,2.634-0.381-0.963-0.389l-3.454,0.422c-6.375-0.879,10.553-0.572,5.114-1.19   c3.525-0.207,8.34-0.366,11.989-0.557c2.902-0.191,5.176-0.415,4.416-0.751c-4.885-0.123-7.85,0.192-10.42,0.5   c-2.655,0.308-5.375,0.607-11.395,0.454l-1.282-0.286c-4.234,0.195-4.918,0.658-7.236,0.939c-0.209-0.164-1.285-0.285-4.005-0.332   c-7.149,0.678-11.895,0.811-18.49,1.549c17.553-0.555,15.006,0.516,33.124,0.021c-2.839,0.219-15.594,0.379-16.378,1.107   l0.169-0.529c-5.891,0.275-11.778,0.547-19.177,0.373l4.516-0.297c-9.806,0.367-16.301-0.801-24.039,0.076   c2.733,0.047,4.951,0.031,6.638-0.049c-5.048,0.235-11.38,0.183-16.866,0.094l-11.35,0.871c0.1-0.262-7.093-0.277-3.623-0.695   c-8.172-0.402-12.024,0.385-16.747,0.516c-8.368-0.561,7.249-0.25,8.069-0.979c-11.529-0.244-23.75-0.023-30.255,0.451   c2.351,0.105,3.494,0.197,3.374,0.324c-0.349-0.166-4.994-0.123-7.584-0.127l-1.78,0.342c-4.314-0.231-3.706-0.434-0.037-0.691   c-1.031-0.018-2.112,0.012-3.219,0.057l-0.417,0.018l-0.212,0.009l-0.307-0.003c-0.409-0.006-0.822-0.01-1.236-0.031   c-0.828-0.078-1.662-0.191-2.481-0.407c-3.28-0.814-6.28-2.93-7.875-5.641c1.585,2.045,3.81,3.774,6.361,4.808   c1.279,0.506,2.625,0.834,3.97,0.989c0.335,0.036,0.671,0.045,1.006,0.063l0.5,0.02l0.368,0.003c0.459,0,0.913,0.001,1.361,0.001   c3.582,0.006,6.743,0.032,8.577-0.097c-3.678,0.085-6.443,0.062-8.813-0.014c-0.296-0.011-0.586-0.021-0.871-0.03   c-0.292-0.013-0.52-0.016-0.964-0.052c-0.786-0.039-1.54-0.163-2.273-0.323c-1.46-0.35-2.812-0.904-4.08-1.659   c-2.478-1.552-4.791-3.873-6.133-7.6c-0.634-1.859-1.013-4.069-0.67-6.535c0.323-2.453,1.346-5.217,3.516-7.599   c0.173-0.051-0.442,0.745-0.59,1.158c-0.086,0.199-0.09,0.279,0.107,0.073c0.194-0.207,0.601-0.698,1.463-1.521   c2.026-1.896,3.553-2.488,4.303-2.879c0.775-0.374,0.879-0.488,0.734-0.556c-0.269-0.119-1.573,0.049,0.148-0.701   c-2.218,0.669-3.94,1.749-5.292,2.881c-1.359,1.137-2.345,2.366-3.122,3.58c-0.78,1.215-1.347,2.438-1.745,3.692   c-0.427,1.25-0.649,2.537-0.758,3.907c0,0-0.034-0.157-0.045-0.395c-0.015-0.239-0.035-0.558-0.054-0.876   c-0.024-0.32-0.025-0.643-0.009-0.885c0.01-0.243,0.017-0.405,0.017-0.405c0.096-0.179,0.375-1.782,1.105-3.412   c0.699-1.645,1.889-3.202,2.511-3.817c0,0,0.153-0.381,0.307-0.762c0.153-0.391,0.351-0.759,0.351-0.759   c-0.02,0.518,1.668-1.074,4.663-2.239c1.49-0.575,3.303-1.009,5.187-1.081l0.708-0.025l0.515,0l0.991-0.005   c0.66-0.008,1.314-0.026,1.946-0.056c-2.607-0.219-3.333-0.358-4.238-0.439c-0.711-0.104-0.717-0.279-1.846-0.463   c0.68-0.161,1.332-0.275,1.958-0.318c0.292-0.022,0.575-0.045,0.852-0.066c0.189-0.009,0.375-0.018,0.555-0.027   c0.722-0.029,1.373-0.035,1.978-0.025c1.211,0.019,2.241,0.101,3.299,0.182c2.115,0.161,4.337,0.317,8.326-0.041   c-0.598,0.202-7.562,0.352-1.544,0.506c4.981,0.027,4.317-0.461,7.658-0.617c-3.762,0.522-2.796,0.911-6.874,1.531   c-8.85,0.066-3.57-0.007-12.22,0.221l7.322,0.442c-7.498,0.085-5.453,0.598-6.07,0.798c12.805,0.532,9.65-0.794,17.889-0.657   c3.972-0.358-7.717-0.076-1.504-0.451c7.705,0.076,1.757-0.341,10.404-0.568l-1.448,0.24c2.644,0.311,5.257-0.072,8.315-0.125   c3.364-0.158-3.809-1.816,10.022-1.852c-0.677,0.146-0.927,0.238-0.927,0.299l-13.492,4.391   c14.014-0.011,30.163,0.111,46.391,0.405c3.822,0.858-11.583,0.708-10.59,1.095l-7.402-0.176c0.415-0.364,15.508-0.112,8.823-0.755   c-13.071,0.261-19.001-0.157-31.401,0.593c3.852,0.86,16.332-0.153,24.397,0.512c-3.387-0.056-6.246,0.039-9.022,0.162   c7.574,0.113,15.68,0.233,24.298,0.361l1.936-0.208c-5.808-0.097-9.826-0.17-10.344-0.201c7.701,0.075,14.196-0.401,14.708-1.03   l-1.368-0.022l2.783-0.196C180.313,245.043,182.119,245.083,183.916,245.123z M366.727,245.272   c-0.469,0.061-0.837,0.131-1.109,0.219C365.9,245.399,365.584,245.339,366.727,245.272z M122.491,264.765   c-5.135-0.058-10.292-0.117-15.399-0.175c-2.553-0.031-5.094-0.062-7.614-0.092c-1.259-0.013-2.514-0.026-3.762-0.039   c-0.624-0.006-1.246-0.012-1.867-0.018c-0.33,0.004-0.578-0.02-0.839-0.034c-0.262-0.005-0.521-0.037-0.776-0.088   c0.464,0.132,0.904,0.158,1.412,0.223c0.545,0.038,1.084,0.076,1.616,0.113c1.063,0.076,2.096,0.15,3.09,0.222   c1.989,0.152,3.823,0.292,5.431,0.415c3.214,0.263,5.521,0.496,6.341,0.689c0.821,0.194,0.156,0.349-2.572,0.452   c-1.364,0.053-3.244,0.092-5.712,0.118c-1.234,0.008-2.615,0.018-4.152,0.028c-0.768,0.002-1.576,0.004-2.423,0.006   c-0.854-0.006-1.711,0.025-2.715-0.047c0,0-0.129,0.005-0.321-0.021c-0.193-0.021-0.45-0.049-0.707-0.077   c-0.512-0.073-1.019-0.197-1.019-0.197c0.963,0.354,2.257,0.511,3.543,0.522c1.273,0.013,2.672,0.027,4.146,0.042   c2.949,0.013,6.2-0.006,9.352-0.051c2.55-0.22,7.94-0.735,12.669-1.213c2.364-0.249,4.563-0.479,6.162-0.647   c1.598-0.18,2.593-0.308,2.548-0.343c-1.807-0.348-4.44,0.031-7.724-0.074L122.491,264.765z M129.794,266.849   c5.821,0.139,4.496-0.137,5.399-0.385c-2.049,0.031-4.095,0.063-6.117,0.094C129.85,266.621,130.232,266.709,129.794,266.849z    M134.845,266.217c-0.654-0.006-1.212-0.018-1.504-0.051L134.845,266.217z M133.969,246.098c-0.259,0.006-0.352,0.009-0.598,0.015   c1.375,0.019,2.753,0.038,4.191,0.058C137.004,246.132,135.941,246.101,133.969,246.098z M122.154,245.49l-1.381,0.454   c1.282,0.017,2.59,0.035,3.928,0.052C124.259,245.791,123.797,245.612,122.154,245.49z M83.87,248.854   c-0.337,0.643-0.835,1.667-1.231,2.886c-0.398,1.219-0.628,2.662-0.562,4.015c0.05,1.354,0.358,2.604,0.728,3.496   c0.198,0.44,0.396,0.798,0.557,1.053c0.186,0.245,0.333,0.392,0.432,0.417c0.411,0.417-0.495-1.193-0.699-3.195   c-0.327-2.193,0.088-4.666,1.377-6.82c-0.028-0.117,0.127-0.609,0.592-1.33c-1.628,1.953-2.097,3.724-2.154,2.549   c0.821-1.531,1.62-2.456,2.25-3.221c0.321-0.38,0.611-0.714,0.903-1.015c0.274-0.322,0.564-0.59,0.853-0.877   c0.583-0.563,1.242-1.104,2.24-1.62c0.993-0.505,2.381-0.952,4.309-0.931c0.272-0.059,0.346-0.104,0.288-0.147   c-0.061-0.042-0.249-0.082-0.636-0.09c-0.738-0.049-2.005,0.055-3.362,0.469c-1.358,0.407-2.758,1.181-3.801,2.059   C84.907,247.43,84.172,248.337,83.87,248.854z M266.364,272.666c0.055-0.167,0.197-0.752,0.372-1.499l0.312,4.323   c-0.137,8.245-1.041,14.851-0.264,22.272c-0.195,3.474-0.609,5.333-0.949,7.109c0.025-1.7,0.059-3.291,0.111-4.616   c-0.57-10.403-0.27-13.115,0.075-15.328c0.172-1.106,0.355-2.089,0.447-3.844c0.046-0.878,0.068-1.95,0.056-3.327   C266.511,276.403,266.462,274.637,266.364,272.666z M265.256,367.395c-0.039-0.851-0.143-1.156-0.143-1.156   c1.154,18.424,1.49,33.593,1.445,43.525c0.457-1.926,0.813-10.836,1.002-15.066l0.521,3.749l-0.41,2.341l0.474,6.509   c0.351-1.819,0.278-7.076,0.548-10.59c-0.1-0.306-0.709-11.556-1.029-14.701l-0.361,8.989c0.146-2.427,0.025-14.352-0.107-19.08   c-0.262-0.094-0.665,8.056-0.098,9.082c-0.387,0.97-0.391-8.425-0.807-2.484c-0.414-7.04-0.068-18.24,0.123-23.438l0.652-0.88   c0.254-5.702-0.785-3.853-0.408-10.627c0.127,8.329,0.715-1.407,0.764,5.217c0.246-2.115,0.689-0.043,0.641-6.681   c-0.863-5.526,0.541-6.997-0.221-12.221c0.27-3.49,0.52,3.756,0.635-3.111c-0.453-7.877-0.779-7.422-1.407-7.91   c-0.177,7.365,0.817,8.275,0.664,14.299l-1.075-11.98c-0.152,2.208-0.168,3.842-0.125,5.213c-0.063-2.407-0.223-4.453-0.441-6.203   c-0.115-0.997-0.222-1.917-0.32-2.766c-0.006,6.791-0.021,12.821-0.288,13.887l-0.305-0.937c-0.28,2.404-0.061,6.323,0.163,8.13   c0.033,6.08,0.457,12.153,0.063,13.482l-0.279-2.309C265.213,357.157,265.252,357.991,265.256,367.395z M235.942,264.562   c0.603,0.148,1.211,0.294,1.87,0.436c0.737,0.142,1.492,0.278,2.302,0.407c1.622,0.259,3.461,0.488,5.811,0.67   c-0.159,2.316-0.281,4.951-0.352,8.146c-0.07,3.37-0.089,7.435-0.043,12.385l-0.077-1.664c-0.701,10.653,0.927,20.771,0.148,33.732   c-0.421-6.29-0.383-5.951-1.346-12.895l0.316,6.747c-0.608-1.869-0.293,4.862-0.322,9.813l-0.723-4.37   c0.208-2.973,0.283-10.677,0.118-10.45c0.08,1.687,0.913-10.172,0.703-16.614c-0.49,0.664-0.292,14.266-1.092,8.192   c0.335,5.354-0.153,6.018,0.019,11.612c-0.336-5.366-0.668-1.328-1.025-5.323l0.167,9.176c-0.163,0.239-0.362-13.363-0.965-5.845   c0.257,3.676-0.065,13.492,0.462,13.668l-0.162,0.226c-0.114,6.878,0.747,3.025,0.446,11.471c0.265,0.1,0.449-1.512,0.394-4.536   c-0.118-2.558-0.48-2.949-0.554-8.216c0.413-2.361-0.051,6.353,0.646,2.696c0.347-1.816-0.3-13.904,0.484-10.052l-0.113,6.864   c0.528,0.176,0.498,5.146,0.924,5.008c0.194,4.197-0.4,8.158,0.059,12.445c0.341,1.78,0.976-1.328,0.7,5.766   c-0.781,5.542-0.629,21.873-0.518,27.99l0.337,5.353c0.324-0.454-0.044-10.228,0.377-6.791l0.127,8.349l-0.203-0.645   c-0.045,2.767,0.173,5.596,0.289,8.12c-0.38-2.601-0.228-8.618-0.777-7.422c-0.108,3.918-0.313,4.516-0.207,8.122   c-0.039-0.787-0.093-1.465-0.17-1.365c-0.238,7.934,0.615,7.661,0.794,9.65c0.716,7.977,0.664-8.039,1.23-7.02l0.303,23.288   c-0.179-1.989-0.356-3.991-0.582-3.241c-0.254,5.712-0.427,0.13-0.4,8.149c0.188-0.143,0.311,0.417,0.397,1.425   c0.078,1.008,0.196,2.526,0.842,4.069c0.601,1.558,1.755,3.09,3.168,4.18c1.427,1.077,3.083,1.703,4.466,1.82   c0.623,0.193,1.142,0.288,1.473,0.343c0.329,0.073,0.467,0.096,0.338,0.129c-0.128,0.017-0.526,0.041-1.253-0.023   c-0.722-0.081-1.79-0.269-3.122-0.891c0.158,0.376,2.225,1.413,4.742,1.313c1.241-0.028,2.544-0.314,3.631-0.78   c1.09-0.466,1.963-1.063,2.536-1.504c0.608-0.579,1.391-1.401,1.988-2.371c0.603-0.968,1.011-2.049,1.216-2.905   c-0.489,1.086-0.76,1.306-0.668,0.726c0.077-0.593,0.526-1.964,0.337-4.428l-0.104-0.292c-0.01,1.059-0.035,2.06-0.289,3.098   c-0.242,1.033-0.706,2.054-1.339,2.974c-1.26,1.853-3.281,3.229-5.415,3.723c-1.063,0.255-2.148,0.315-3.17,0.211   c-1.021-0.118-1.969-0.396-2.81-0.764c-1.692-0.74-2.879-1.861-3.673-2.731c0,0,0.236,0.242,0.503,0.446   c0.265,0.202,0.529,0.403,0.529,0.403c-1.428-1.576-2.361-3.67-2.498-5.849c-0.083-2.438-0.166-4.85-0.243-7.102   c-0.157-4.539-0.251-8.436,0.21-10.631c0.365,0.405,0.084-1.912,0.611-1.746l-0.412-7.011l0.239,1.458l-0.119-11.925l0.099,0.315   c-0.492-5.667-0.877-10.107-1.186-13.654c-0.23-0.014-0.301,0.354-0.47-1.534c-0.114-1.896-0.131-3.334-0.101-4.616   c-0.001-0.01-0.001-0.01-0.003-0.01h0.003c0.067-2.926,0.397-4.875,0.532-8.479l0.057,11.089c0.391,0.902,0.796-0.04,1.069-5.473   c0.015,2.222,0.319,3.151,0.364,0.401c-0.102-0.302-0.25-7.266-0.561-4.612c-0.143-10.533,0.883-27.586,0.141-43.578   c0.446,11.489,0.523-9.209,0.684,3.547c0.625-8.903-0.615-7.661-0.518-16.737c0.225-0.773-0.029,4.941,0.414,7.027   c0.124-7.472-0.122-13.786-0.379-20.031c-0.128-3.123-0.26-6.228-0.349-9.452c-0.02-0.828-0.039-1.665-0.059-2.511   c-0.013-0.938-0.025-1.886-0.038-2.848c-0.018-1.918-0.02-3.883,0-5.952c-0.145-0.002-0.304-0.004-0.464-0.005   c0,0-0.067-0.122-0.134-0.244c-0.076-0.122-0.152-0.244-0.152-0.244C243.195,264.422,239.639,264.49,235.942,264.562z    M207.064,265.17c-2.809,0.055-5.658,0.11-8.554,0.168c0.282,0.005,0.544,0.009,0.84,0.014l-8.441,0.393   c5.187,0.19,8.604,0.727,1.345,0.976c0.611-0.202-1.511-0.448,1.013-0.566c-4.865-0.292-15.538-0.575-12.755,0.161   c9.348-0.696,2.179,0.938,9.524,0.421c-3.941,0.479-7.847,0.264-11.569,0.478c3.875-0.4-0.903-0.909-6.725-1.101   c-2.534,0.118-9.391,0.005-13.602,0.2c1.501,0.449-2.165,0.707,4.695,0.82c-2.517,0.119-6.412,0.213-10.776-0.02   c1.73-0.076,4.755-0.133,4.546-0.295c-2.816-0.414-6.114-0.396-7.933-0.573c-1.451,0.024-2.916,0.049-4.34,0.072   c0.425,0.04,0.793,0.091,1.056,0.155l-4.821,0.396c6.422-0.211,2.969,0.209,2.886,0.473c0.172-0.527-4.135-0.068-6.333-0.051   l4.775,0.557c-2.308,0.279-8.149-0.402-6.944,0.148c10.132,0.221,14.027,0.127,23.189-0.039l-3.719-0.434   c10.337-0.306,6.376,0.742,17.975,0.722c4.822-0.396,17.444-0.027,17.683-0.819c-1.455,0.242,7.223,0.705,11.197,0.346   c4.394-0.723,17.68-0.82,13.655-1.15c-3.59-0.01-8.421,0.389-11.307-0.082l6.963-0.151l-4.569-0.394   C208.379,266.135,208.15,265.75,207.064,265.17z M104.404,251.27c0.077,0.003,0.176,0.007,0.269,0.01   c-0.103-0.001-0.203-0.001-0.299-0.002L104.404,251.27z" fill="#202020"/><path d="M362.485,264.722c2.003-0.18,6.954-0.15,5.984-0.539C368.588,264.611,359.622,264.25,362.485,264.722z" fill="#202020"/><path d="M368.406,265.138c0.349-0.102,0.106-0.264,2.328-0.279l-6.117,0.108L368.406,265.138z" fill="#202020"/><path d="M374.613,268.051c3.154-0.317,5.153-0.496,10.104-0.468c1.859,1.04-8.105,0.29-10.351,1.261   c9.075,0.098,11.861-0.811,19.327-0.898C389.994,267.511,374.885,267.261,374.613,268.051z" fill="#202020"/><polygon fill="#202020" points="370.581,269.365 375.628,269.131 375.13,269.069 370.079,269.303  "/><path d="M260.334,268.341c-0.162,0.313-0.163,1.865-0.114,3.67c0.015,0.45,0.029,0.917,0.045,1.386l0.025,0.701   l0.027,0.45c0.033,0.539,0.064,1.053,0.091,1.474c0.007-0.343,0.014-0.72,0.022-1.124c0.005-0.529,0.01-1.094,0.016-1.684   C260.448,271.702,260.424,270.064,260.334,268.341z" fill="#202020"/><path d="M259.996,233.243c0.035,6.219,0.069,12.438,0.069,18.691l31.679-0.244   c-9.093,0.048-17.719,0.093-31.601,0.167C260.119,248.752,260.063,241.556,259.996,233.243z" fill="#202020"/><path d="M262.457,398.494c-0.306-10.338-0.865-14.931-1.008-25.464c-0.654,13.851,1.021,18.294,0.352,29.923   L262.457,398.494z" fill="#202020"/><path d="M259.866,394.847c0.612-1.714,0.717,7.977,1.165,6.476c-0.148-6.967-0.582-3.244-0.529-9.567   L259.866,394.847z" fill="#202020"/><polygon fill="#202020" points="269.981,348.002 270.299,351.136 270.182,348.613  "/><path d="M252.914,421.644c0.01-0.004,0.459,0.24,0.47,0.22c0,0-0.11-0.086-0.244-0.248   c-0.075-0.071-0.158-0.16-0.228-0.271c-0.079-0.103-0.169-0.206-0.23-0.33c-0.295-0.462-0.452-0.966-0.452-0.966   c0,0,0.089,0.402,0.247,0.816C252.661,421.258,252.914,421.644,252.914,421.644z" fill="#202020"/><path d="M253.86,422.02c0.003-0.004-0.125-0.021-0.241-0.065c-0.117-0.045-0.234-0.091-0.234-0.091   s0.117,0.046,0.234,0.091C253.735,421.999,253.863,422.016,253.86,422.02z" fill="#202020"/><polygon fill="#202020" points="271.293,352.03 271.424,347.371 271.143,345.066  "/><path d="M268.01,393.15l-0.195-4.167C267.852,389.81,267.6,395.511,268.01,393.15z" fill="#202020"/><polygon fill="#202020" points="251.851,394.788 251.616,389.718 251.555,390.235 251.79,395.29  "/><path d="M266.219,427.602c1.443-1.391-0.238,0.99-2.213,2.361c-0.48,0.348-0.97,0.626-1.345,0.861   c-0.393,0.205-0.682,0.354-0.783,0.422c-0.102,0.066-0.017,0.053,0.337-0.083c0.357-0.126,0.966-0.41,1.873-0.949   c1.538-1.085,2.294-2.062,2.767-2.633c0.438-0.607,0.561-0.872,0.537-0.916C267.331,426.57,266.663,427.322,266.219,427.602z" fill="#202020"/><path d="M245.493,381.449c0-0.685-0.017-1.405-0.069-2.1C245.451,380.177,245.474,380.871,245.493,381.449z" fill="#202020"/><path d="M245.493,381.449c0,2.208-0.18,4.416-0.044,5.931C245.662,384.627,245.582,383.624,245.493,381.449z" fill="#202020"/><path d="M245.384,356.148l-0.034,2.002c-0.232-2.046-0.198-1.076-0.011,0.751c0.016,2.121,0.165,2.002,0.267,2.254   c0.06,0.425,0.119,0.847,0.183,1.306c-0.064-0.654-0.121-1.242-0.17-1.74C245.622,357.433,245.599,355.427,245.384,356.148z" fill="#202020"/><path d="M246.049,258.691c2.834,0.039,5.236,0.072,7.161,0.1c-0.122,8.094-0.235,10.193-0.525,9.723   c-0.004,1.594-0.008,2.956-0.011,4.137c0.006,0.575,0.011,1.106,0.016,1.599c0.01,0.278,0.02,0.535,0.028,0.772   c0.045,0.951,0.117,1.605,0.198,2.173c0.161,1.135,0.354,1.921,0.427,4.038c-0.007-1.662-0.013-3.047-0.018-4.289   c0.005-1.465,0.01-2.763,0.015-4.05c0.003-4.138,0.007-8.209,0.012-14.245C251.558,258.659,249.004,258.674,246.049,258.691z" fill="#202020"/><path d="M253.343,281.232c0.009,0.89,0.019,1.739,0.029,2.772C253.383,282.849,253.368,281.992,253.343,281.232z" fill="#202020"/><polygon fill="#202020" points="241.392,385.719 240.833,381.123 240.911,382.81  "/><path d="M231.186,258.508c1.372,0.022,3.57,0.006,4.649,0.131C236.23,258.273,229.818,258.484,231.186,258.508z" fill="#202020"/><path d="M246.335,279.708c-0.224,0.75-0.09,5.482-0.176,7.408C246.206,284.353,246.879,282.102,246.335,279.708z" fill="#202020"/><path d="M209.97,260.013c1.372,0.023,3.48,0.269,2.567,0.57C214.53,260.406,217.226,259.761,209.97,260.013z" fill="#202020"/><polygon fill="#202020" points="246.4,265.802 246.276,267.014 246.51,272.191  "/><path d="M241.009,284.244c0.436,5.691,1.051-9.029,1.42,0.773c0.456-12.646-0.617,0.97-0.546-8.358   C241.735,282.122,241.184,284.799,241.009,284.244z" fill="#202020"/><path d="M241.882,276.659c0.008-0.396,0.018-0.811,0.027-1.241c0.003-0.41,0.007-0.838,0.011-1.282   C241.905,275.143,241.892,275.956,241.882,276.659z" fill="#202020"/><path d="M176.553,267.361c0.827-0.047,1.391-0.096,1.913-0.148C177.815,267.25,177.194,267.295,176.553,267.361z" fill="#202020"/><path d="M226.869,270.478l8.531-0.654c-5.698,0.436-20.034,0.408-19.141,1.06c4.643,0.132,10.228-0.04,12.522-0.321   L226.869,270.478z" fill="#202020"/><path d="M128.947,258.668l3.686-0.258l-4.603-0.076C129.349,258.431,126.965,258.91,128.947,258.668z" fill="#202020"/><path d="M127.141,258.32l0.89,0.014C127.835,258.317,127.552,258.31,127.141,258.32z" fill="#202020"/><path d="M192.689,267.045c2.756,0.047,4.961,0.029,7.475-0.088C199.121,266.834,192.254,266.719,192.689,267.045z" fill="#202020"/><polygon fill="#202020" points="102.992,259.615 109.076,259.503 102.438,259.551  "/><path d="M91.124,255.213c0.012,0,0.191-0.198,0.208-0.188c0,0,0.049-0.303,0.219-0.585   c0.154-0.287,0.393-0.532,0.393-0.532c-0.005-0.013-0.302,0.082-0.3,0.09c0.003,0.003-0.068,0.057-0.126,0.18   c-0.08,0.103-0.154,0.262-0.223,0.414c-0.07,0.153-0.1,0.315-0.142,0.425C91.148,255.141,91.124,255.213,91.124,255.213z" fill="#202020"/><path d="M111.733,271.324c4.124,0.068,7.345-0.516,6.266-0.64l-7.997,0.026c2.032,0.512,2.218-0.016,6.854,0.113   L111.733,271.324z" fill="#202020"/><path d="M252.536,200.302c0.342,1.787,0.144,10.534-0.181,10.992c-0.141-1.175-0.276-5.917-0.483-2.939l0.84,6.92   c-0.523,9.205-1.104-6.997-1.4-11.542c-0.108,9.377,0.444,12.157,0.44,22.132c0.075-2.942,0.285-4.802,0.465-6.356   c0.591-0.338,0.329,8.956,0.376,15.601c0.257-4.23,0.473-1.783,0.705,1.298c0.019,0.555,0.052,0.923,0.092,1.186l0.021,0.32   l0.021,0.498c0.014,0.331,0.027,0.66,0.042,0.994l-0.001-1.523c0.017,0.027,0.034,0.026,0.053-0.007   c0.019-0.042,0.038-0.102,0.059-0.144c0.042-0.109,0.089-0.296,0.144-0.583c-0.172-5.576,0.322-9.839,0.33-13.429   c-0.961,3.546-0.222-12.224-0.518-16.736l-0.095-5.21l-0.002-1.949c0.105-0.392,0.238,0.163,0.428,3.135   c-0.189-2.48-0.123-10.752-0.432-9.989l-0.014-18.878c0.039-0.588,0.088-1.176,0.157-1.611c-0.061-0.654-0.11-0.764-0.159-0.677   c0,0-0.015-20.563-0.031-41.125c-0.008-10.282-0.016-20.563-0.021-28.274c-0.001-1.928-0.003-3.695-0.004-5.261   c-0.001-0.783-0.001-1.517-0.002-2.194c0-0.339,0-0.664,0-0.975c0-0.155,0-0.307,0-0.455l0.014-0.132   c0.007-0.612,0.209-0.89,0.185-0.9c-0.113,0.238-0.188,0.479-0.267,0.736c-0.039-0.032-0.094,1.265-0.125,2.158   c-0.068,1.908-0.137,3.832-0.212,5.923c-0.638-6.279-0.115,6.861-0.719,5.018c-0.219-2.822-0.15-6.954-0.003-9.414   c-0.305-0.917-0.575,2.59-0.939,2.185c-0.383,10.374,1.075,11.961,0.854,22.103c-0.365-0.402-0.685-3.537-0.635,3.102l-0.079-1.687   c0.409,10.629-0.826,8.282,0.176,14.973l-0.527-0.176c0.397,4.821,0.4,14.203,0.473,19.489l-0.102-0.315   c0.604,14.83,0.128,8.325,0.381,24.979l-0.615-7.664c-0.254,5.745,0.415,7.04,0.346,11.164c-0.102-0.295-0.487,0.661-0.583-3.234   l0.938,20.207C252.322,206.854,252.311,201.053,252.536,200.302z" fill="#202020"/><path d="M251.752,225.865c-0.028,1.069-0.04,2.285-0.02,3.719C251.74,228.2,251.746,227.008,251.752,225.865z" fill="#202020"/><path d="M254.518,91.312c0,0-0.067,0.071-0.193,0.144c-0.049,0.055-0.108,0.115-0.183,0.168   c-0.056,0.072-0.121,0.143-0.19,0.211c-0.249,0.302-0.389,0.652-0.389,0.652C253.783,92.078,254.083,91.681,254.518,91.312z" fill="#202020"/><path d="M237.171,252.903c0.547,0.046,0.906,0.077,1.116,0.095c0.31,0.029,0.397,0.057,0.313,0.083   c-0.083,0.026-0.338,0.05-0.71,0.073c-0.21,0.018-0.485,0.041-0.793,0.067c-1.17,0.086-2.854,0.165-3.16,0.266   c6.514-0.003,13.028-0.006,19.544-0.006l-0.003-0.931c-0.203-0.099-0.431-2.619-0.616-2.293l0.004,2.609L237.171,252.903z" fill="#202020"/><path d="M253.86,245.794c-0.142-0.906-0.268-3.534-0.388-6.387l0.005,13.142   C253.63,252.609,253.768,251.271,253.86,245.794z" fill="#202020"/><polygon fill="#202020" points="243.019,241.243 243.001,239.822 242.844,237.628  "/><path d="M243.913,208.465c-0.308,2.653-0.074,7.688,0.004,9.371C243.907,212.035,244.024,214.549,243.913,208.465z" fill="#202020"/><polygon fill="#202020" points="240.613,215.635 240.438,210.042 240.378,210.564  "/><path d="M260.719,114.527c0.012,0.917,0.023,1.806,0.035,2.733C260.756,116.008,260.74,115.191,260.719,114.527z" fill="#202020"/><path d="M252.201,91.693c0.792-1.175,1.352-1.242,1.325-1.177c0.032,0.112-0.371,0.479-0.616,1.052   c-0.158,0.264-0.211,0.596-0.292,0.879c-0.025,0.304-0.048,0.579,0.002,0.805c0.012,0.055,0.023,0.107,0.033,0.155   c0.011,0.066,0.015,0.041,0.033,0.188c0.031,0.218,0.063,0.379,0.099,0.468c0.071,0.176,0.152,0.063,0.247-0.461   c-0.01-0.111,0.013-0.193-0.022-0.419c0.023-0.202,0.009-0.482,0.096-0.746c0.049-0.277,0.182-0.531,0.273-0.73   c0.115-0.185,0.187-0.318,0.197-0.309c-0.011-0.004,0.028,0.278,0.035,0.279c-0.029-0.014,0.409-0.563,1.004-0.884   c0.578-0.347,1.285-0.36,1.285-0.36c-0.596-0.322-1.093-0.17-1.066-0.565c0.531-0.161,0.994-0.144,1.345-0.105   c0.354,0.028,0.595,0.116,0.769,0.192c0.346,0.158,0.442,0.262,0.492,0.378c0.044,0.123,0.082,0.182,0.202,0.393   c0.126,0.178,0.403,0.453,0.693,1.041c-0.001,0,0.168,0.183,0.317,0.51c0.087,0.158,0.148,0.357,0.209,0.571   c0.038,0.106,0.026,0.228,0.069,0.342c-0.002,0.062-0.002,0.124,0.004,0.186c0.004,0.081,0.021,0.057,0.019,0.328   c0.016,3.303,0.033,6.605,0.033,6.605l-0.109-1.069c0.008,1.113,0.053,1.604,0.113,1.986l0.227,44.518   c0.291,8.099,0.658-4.479,1.195,1.494c-0.002-9.388,0.387-23.338-0.342-24.135c0.102,0.315,0.303,0.936,0.389-0.966l-0.6-5.43   l-0.191,5.177c-0.598-5.459-0.465-23.089-0.094-26.277c0.203,10.025,0.924,4.995,0.532,18.961c0.185-0.627,0.51-3.185,0.61-0.04   c-0.027-4.091-0.054-8.077-0.08-12.018c-0.002-1.971-0.005-3.93-0.008-5.887l-0.003-2.934v-0.183l-0.009-0.089l-0.012-0.171   c-0.008-0.114,0.003-0.23-0.029-0.34c-0.021-0.111-0.036-0.222-0.048-0.334l-0.089-0.324c-0.469-1.733-2.132-3.143-3.941-3.245   c-0.458-0.014-0.927,0.003-1.366,0.109c-0.436,0.118-0.853,0.288-1.243,0.517C253.139,90.123,252.493,90.845,252.201,91.693z" fill="#202020"/><path d="M260.568,230.696l-0.065-0.129C260.537,230.862,260.563,230.958,260.568,230.696z" fill="#202020"/><path d="M260.658,225.203l-0.715-7.976L260,229.663l0.502,0.903c-0.127-1.099-0.381-5.459-0.186-7.15   L260.658,225.203z" fill="#202020"/><path d="M259.512,207.966c0.213,6.422,0.803,6.074,1.071,2.57c0.274,5.897-0.634,3.111-0.011,7.173   c0.426-0.133,0.176-7.402,0.098-9.072L259.512,207.966z" fill="#202020"/><polygon fill="#202020" points="259.823,160.578 260.067,162.385 260.131,157.935  "/><path d="M260.067,162.385L260,166.802c0.182-0.306,0.359-0.607,0.483-1.328L260.067,162.385z" fill="#202020"/><path d="M259.83,178.391c-0.043,1.87-0.076,3.938-0.093,6.456L259.83,178.391z" fill="#202020"/><path d="M259.981,173.34l-0.076,0.149l-0.074,4.901C259.885,176.585,259.933,174.964,259.981,173.34z" fill="#202020"/><path d="M260,166.802c-0.412,0.717-0.847,1.558-0.732,7.943l0.637-1.255L260,166.802z" fill="#202020"/><polygon fill="#202020" points="241.235,174.962 241.001,169.911 240.937,170.446 241.172,175.493  "/><path d="M241.613,145.819c-0.073-1.249-0.149-2.195-0.227-3.055C241.431,144.079,241.5,145.125,241.613,145.819z" fill="#202020"/><path d="M238.79,124.155c0.416-5.941,0.55,8.196,0.734-2.806c0.387-0.969,0.886,4.188,0.693,9.368   c-0.364-0.412-0.233-5.048-0.605-1.863c0.421,3.44,0.134,4.749,0.683,3.55c0.342,5.788,0.732,6.432,1.09,10.36   c-0.242-6.997,0.322-21.688-0.383-30.567c-0.66-4.895-1.561-1.926-2.514-1.946C238.265,110.988,238.159,123.677,238.79,124.155z" fill="#202020"/><path d="M237.839,133.503c-0.047,2.75-0.009,3.589,0.07,5.276C238.235,138.324,237.853,135.724,237.839,133.503z" fill="#202020"/><path d="M263.466,85.458c0.281,0.115,1.394,1.172,2.139,2.268c0.766,1.079,1.193,2.13,1.094,1.507   c0,0-0.039-0.131-0.148-0.342c-0.107-0.212-0.261-0.514-0.445-0.877c-0.426-0.69-1.016-1.607-1.795-2.358   c-0.755-0.769-1.618-1.422-2.319-1.818c-0.347-0.204-0.636-0.373-0.854-0.461c-0.213-0.098-0.335-0.154-0.335-0.154   c0.457,0.212,0.816,0.431,1.107,0.646c0.303,0.198,0.532,0.394,0.719,0.583C263.017,84.809,263.24,85.122,263.466,85.458z" fill="#202020"/><path d="M257.195,82.285c0,0,0.231,0.03,0.578,0.075c0.35,0.032,0.807,0.131,1.261,0.247   c0.461,0.091,0.893,0.284,1.229,0.388c0.332,0.118,0.54,0.229,0.54,0.229C259.96,82.824,258.842,82.398,257.195,82.285z" fill="#202020"/><path d="M263.698,85.783c-0.077-0.108-0.146-0.206-0.231-0.325C263.361,85.401,263.359,85.437,263.698,85.783z" fill="#202020"/><path d="M259.594,196.692c-0.262-0.106-0.105,3.254-0.028,4.941C259.588,200.261,259.674,198.335,259.594,196.692z" fill="#202020"/><path d="M343.202,251.377l2.969,0.208C345.121,251.461,344.584,251.4,343.202,251.377z" fill="#202020"/><path d="M388.955,244.233c0.087-0.051,0.306-0.094,0.602-0.134C389.261,244.132,389.055,244.175,388.955,244.233z" fill="#202020"/><path d="M389.557,244.099c2.028-0.217,8.292,0.121,10.543-0.21l-0.285,0.101l4.19-0.197   C400.076,243.823,391.831,243.782,389.557,244.099z" fill="#202020"/></g></svg>